<svg xmlns="http://www.w3.org/2000/svg" width="160" height="160" viewBox="0 0 160 160">
  <g id="Frank_logo" transform="translate(-776 -1009)">
    <g id="Component_63_10" data-name="Component 63 – 10" transform="translate(776 1009)">
      <g id="Rectangle_6801" data-name="Rectangle 6801" fill="#afafaf" stroke="#707070" stroke-width="1" opacity="0">
        <rect width="160" height="160" stroke="none"/>
        <rect x="0.5" y="0.5" width="159" height="159" fill="none"/>
      </g>
    </g>
    <g id="Frank_logo-2" data-name="Frank_logo" transform="translate(651 1069)">
      <g id="logo_preza_7" transform="translate(130 1)">
        <g id="TEXT_AND_SYMBOL" transform="translate(0 0)">
          <g id="logo_fr_new_3">
            <path id="FRANK" d="M536,4.951h5.756V2H532.5V17.178h3.52V11.935h5.737v-2.9H536ZM552.151,10.1h-2.4V4.86h2.4a2.491,2.491,0,0,1,2.438,2.621A2.491,2.491,0,0,1,552.151,10.1ZM546.23,2V17.178h3.52V12.962h1.65l2.695,4.216h4.088l-3.043-4.8a5.273,5.273,0,0,0,3.024-4.894A5.36,5.36,0,0,0,552.627,2h-6.4Zm21.685,4.326,1.815,6.251h-3.685Zm3.263,10.852h3.813L569.51,2h-3.226l-5.426,15.178h3.758l.587-1.851h5.408Zm16.333-5.3L582.011,2h-3.666V17.178h3.52V7.426l5.463,9.77h3.666V2h-3.5v9.88Zm11.713-1.118v6.416H595.7V2h3.52V8.452L604.136,2h4.234l-6.012,7.589,6.012,7.589h-4.234Z" transform="translate(-458.719 -1.817)" fill="#ffb124"/>
            <path id="CASINO" d="M544.468,134.233H542.3a4.988,4.988,0,0,1-4.711,3.263,5.915,5.915,0,0,1-6.177-6.177,5.847,5.847,0,0,1,5.9-6.141,4.848,4.848,0,0,1,5.078,3.886h2.09c-.587-3.171-2.988-5.664-7.406-5.664a7.939,7.939,0,0,0,.275,15.874A7.089,7.089,0,0,0,544.468,134.233Zm10.779,4.693h2.09l-5.243-15.178h-1.43l-5.224,15.178h2.09l.788-2.328h6.159ZM551.4,126.974l2.456,7.827H548.9Zm9,7.112h-1.98a4.988,4.988,0,0,0,5.243,5.188c2.86,0,5.133-1.613,5.133-4.583,0-2.933-2.713-3.868-5.059-4.619l-.312-.092c-1.338-.4-2.511-1.008-2.511-2.53,0-1.411,1.137-2.273,2.8-2.273a2.628,2.628,0,0,1,2.75,2.86h1.98a4.52,4.52,0,0,0-4.766-4.638c-2.713,0-4.729,1.65-4.729,4.051,0,2.841,1.925,3.721,4.381,4.509l1.155.367c1.173.4,2.328.99,2.328,2.585,0,1.576-1.265,2.585-3.024,2.585A3.181,3.181,0,0,1,560.4,134.087Zm11.127-10.339v15.178h2.035V123.748Zm14.445,11.732-6.837-11.732h-2.2v15.178h1.98V127.194l6.837,11.732h2.2V123.748h-1.98Zm12.392,3.794a7.938,7.938,0,1,0-7.827-7.937A7.716,7.716,0,0,0,598.36,139.274Zm0-1.778a5.881,5.881,0,0,1-5.774-6.159c0-3.208,2.218-6.159,5.774-6.159s5.756,2.951,5.756,6.159C604.116,134.508,601.916,137.5,598.36,137.5Z" transform="translate(-456.187 -100.963)" fill="#fff"/>
            <g id="symbol">
              <path id="Fill-1" d="M233.725,1,221.7,22.044l15.764,16.021h17.414Z" transform="translate(-204.891 -1)" fill="#ffb124"/>
              <path id="Fill-2" d="M371.3,57.056l6.746,11.787L384.736,43.4Z" transform="translate(-327.068 -35.628)" fill="#ff9a24"/>
              <path id="Fill-3" d="M137.736,72.692h21.1L130,43.4Z" transform="translate(-130 -35.628)" fill="#ffce24"/>
            </g>
          </g>
        </g>
      </g>
    </g>
  </g>
</svg>
