<svg xmlns="http://www.w3.org/2000/svg" width="160" height="160" viewBox="0 0 160 160">
  <g id="luck_logo_normal" transform="translate(-1450 -407)">
    <g id="Component_63_24" data-name="Component 63 – 24" transform="translate(1450 407)">
      <g id="Rectangle_6801" data-name="Rectangle 6801" fill="#afafaf" stroke="#707070" stroke-width="1" opacity="0">
        <rect width="160" height="160" stroke="none"/>
        <rect x="0.5" y="0.5" width="159" height="159" fill="none"/>
      </g>
    </g>
    <g id="luck_logo_normal-2" data-name="luck_logo_normal" transform="translate(1074.96 228.847)">
      <g id="Group_708" data-name="Group 708" transform="translate(380.04 230.153)">
        <g id="Group_705" data-name="Group 705">
          <path id="Path_179" data-name="Path 179" d="M425.335,245.323c-6.816-2.569-14.513-2.7-20.033-15.17-3.5,14.446,5.2,22.8,16.558,27.028,7.242,3.281,9.242,7.171,9.242,10.559,0,3.563-2.644,9.844-9.788,9.844-19.6,0-3.878-46.361-41.273-44.374,17.156,4.125,19.67,18.821,18.027,27.594a10.351,10.351,0,0,0-10.81-5.37c12.3,7.584,6.04,20.64,24.494,29.542a20.108,20.108,0,0,0,27.676-14.28C441.866,260.883,436.449,249.44,425.335,245.323Z" transform="translate(-380.04 -230.153)" fill="#f05523"/>
          <path id="Path_180" data-name="Path 180" d="M559.8,357.994a2.63,2.63,0,0,1-1.225-1.3,7.335,7.335,0,0,1-.426-1.253c-.059-.217-.115-.422-.181-.62a1.611,1.611,0,0,0-1.426-1.167c-1.508-.206-3.006-.375-4.143-.493a1.688,1.688,0,0,0-1.373.34,2.2,2.2,0,0,0-.576.961c-.263.779-.542,1.563-.813,2.321q-.242.679-.482,1.358c-.46,1.312-.182,1.92,1.145,2.493l1.75.75c1.983.844,4.031,1.72,6.009,2.681a14.677,14.677,0,0,1,6.646,6.532c2.565,4.863,1.7,9.73-2.37,13.354a15.413,15.413,0,0,1-1.236.988c-4.952,3.562-10.325,2.927-15.128-1.789a16.019,16.019,0,0,1-3.932-6.743c-.648-1.982-1.19-4.026-1.714-6l-.144-.545c-.49-1.846-.907-2.128-2.783-1.887l-.8.1c-.744.094-1.512.188-2.263.3a1.463,1.463,0,0,0-1.318,1.492c-.075,1.552-.16,3.129-.243,4.655l-.018.335c-.068,1.258.264,1.725,1.422,2a3.044,3.044,0,0,1,2.376,2.274c2.393,6.995,6.469,11.378,12.452,13.406A16.657,16.657,0,0,0,563.7,390.7a21.363,21.363,0,0,0,2.953-2.189h0a17.537,17.537,0,0,0,5.895-13.269,16.019,16.019,0,0,0-4.569-11.361A22.658,22.658,0,0,0,559.8,357.994ZM541.7,385.486a21.8,21.8,0,0,1-3.779-7.165,1.374,1.374,0,1,1,2.62-.832,19.059,19.059,0,0,0,3.29,6.269,1.374,1.374,0,0,1-.154,1.89l-.05.042a1.374,1.374,0,0,1-1.933-.2Zm6.193,3.7a.6.6,0,1,0-.006,0Zm12.982-.235a1.373,1.373,0,0,1-.773,1.781,15.434,15.434,0,0,1-8.228.87,1.374,1.374,0,1,1,.456-2.711,12.684,12.684,0,0,0,6.762-.716,1.374,1.374,0,0,1,1.776.775Zm4.326-1.369a.6.6,0,1,0-.006,0Zm5.576-12.844a15.223,15.223,0,0,1-1.847,8.071,1.375,1.375,0,1,1-2.416-1.312,12.308,12.308,0,0,0,1.519-6.614,1.374,1.374,0,1,1,2.744-.149Zm-2.017-4.125a.731.731,0,1,0-.007,0Zm-3.021-4.687q-.037.038-.075.072a1.373,1.373,0,0,1-1.867-.04,17.157,17.157,0,0,0-5.962-3.706,1.374,1.374,0,0,1,.966-2.573,19.889,19.889,0,0,1,6.907,4.3,1.373,1.373,0,0,1,.024,1.945Z" transform="translate(-512.999 -337.236)" fill="#f3f5f6"/>
        </g>
        <g id="Group_707" data-name="Group 707" transform="translate(69.599 23.38)">
          <g id="Group_706" data-name="Group 706" transform="translate(0 0)">
            <path id="Path_181" data-name="Path 181" d="M930.812,431.84a3.071,3.071,0,0,1,1.969.386,2.8,2.8,0,0,1,0,3.865,3.07,3.07,0,0,1-1.969.386h-9.858c-1.855,0-2.474-.734-2.474-2.474V414.058a3.258,3.258,0,0,1,.386-2.049,2.631,2.631,0,0,1,2.242-.812,2.6,2.6,0,0,1,2.2.812,3.257,3.257,0,0,1,.386,2.049V431.84Z" transform="translate(-918.448 -411.164)" fill="#fff"/>
            <path id="Path_182" data-name="Path 182" d="M1068.888,467.214a4.846,4.846,0,0,0,.889-3.4V455.23a3.131,3.131,0,0,1,.387-2.01,3.31,3.31,0,0,1,4.253,0,3.123,3.123,0,0,1,.425,2.01v8.2c0,2.126,0,4.523-1.855,6.61-1.353,1.546-3.557,2.745-7.461,2.745s-6.031-1.2-7.384-2.745c-1.855-2.126-1.855-4.446-1.855-6.61v-8.2a3.132,3.132,0,0,1,.387-2.01,2.566,2.566,0,0,1,2.165-.773,2.6,2.6,0,0,1,2.2.773,3.137,3.137,0,0,1,.386,2.01v8.582a4.845,4.845,0,0,0,.889,3.4,4.155,4.155,0,0,0,3.286,1.125A4.211,4.211,0,0,0,1068.888,467.214Z" transform="translate(-1038.433 -447.083)" fill="#fff"/>
            <path id="Path_183" data-name="Path 183" d="M1245.259,466.767a6.956,6.956,0,0,0,2.438-.464,7.48,7.48,0,0,1,2.242-.734c1.313,0,2.01,1.585,2.01,2.59a2.427,2.427,0,0,1-1.431,2.048,11.473,11.473,0,0,1-5.411,1.2c-5.838,0-10.36-3.788-10.36-10.244,0-6.765,4.987-10.206,10.4-10.206a11.738,11.738,0,0,1,5.374,1.2,2.372,2.372,0,0,1,1.431,2.048c0,1-.656,2.59-2.049,2.59a7.985,7.985,0,0,1-2.358-.735,7.183,7.183,0,0,0-2.437-.464c-2.706,0-5.181,1.74-5.181,5.531C1239.925,465.028,1242.6,466.767,1245.259,466.767Z" transform="translate(-1193.818 -445.782)" fill="#fff"/>
            <path id="Path_184" data-name="Path 184" d="M1406.7,425.19l5.719-6.533c1.16-1.353,1.895-2.126,3.9-2.126,1.7,0,2.281.579,2.281,1.313a2.757,2.757,0,0,1-.966,1.74l-6.108,6.224,7,7.615a2.933,2.933,0,0,1,.928,1.817c0,.773-.656,1.391-2.512,1.391-2.088,0-2.707-.812-3.866-2.2l-6.375-7.615v7.031a3.258,3.258,0,0,1-.386,2.048,2.6,2.6,0,0,1-2.2.734,2.563,2.563,0,0,1-2.166-.734,3.259,3.259,0,0,1-.386-2.048V413.968a3.137,3.137,0,0,1,.386-2.01,2.568,2.568,0,0,1,2.166-.773,2.6,2.6,0,0,1,2.2.773,3.136,3.136,0,0,1,.386,2.01Z" transform="translate(-1339.05 -411.163)" fill="#fff"/>
          </g>
        </g>
      </g>
      <g id="Group_710" data-name="Group 710" transform="translate(510.433 281.53)">
        <g id="Group_709" data-name="Group 709" transform="translate(0 0)">
          <path id="Path_185" data-name="Path 185" d="M1388.968,661.016a.633.633,0,1,1,.609-.632A.632.632,0,0,1,1388.968,661.016Z" transform="translate(-1388.335 -655.575)" fill="#f05523"/>
          <path id="Path_186" data-name="Path 186" d="M1404.558,632.064a1.891,1.891,0,0,0,.705-.146,2.006,2.006,0,0,1,.591-.227c.276,0,.429.324.429.535a.569.569,0,0,1-.34.478,2.869,2.869,0,0,1-1.406.333,2.719,2.719,0,1,1,.008-5.437,2.829,2.829,0,0,1,1.387.332c.234.138.349.292.349.469,0,.211-.146.562-.438.562a2.249,2.249,0,0,1-.616-.235,1.805,1.805,0,0,0-.714-.154,1.508,1.508,0,0,0-1.523,1.7,1.594,1.594,0,0,0,1.568,1.788Z" transform="translate(-1400.121 -627.578)" fill="#f05523"/>
          <path id="Path_187" data-name="Path 187" d="M1444.014,627.473a2.6,2.6,0,0,1,2.74,2.732,2.635,2.635,0,0,1-2.781,2.748,2.6,2.6,0,0,1-2.739-2.732,2.635,2.635,0,0,1,2.78-2.748Zm-.016,4.548a1.816,1.816,0,1,0-1.646-1.816,1.586,1.586,0,0,0,1.652,1.816Z" transform="translate(-1434.396 -627.469)" fill="#f05523"/>
          <path id="Path_188" data-name="Path 188" d="M1495.385,628.519c.188-.375.34-.608.75-.608a.536.536,0,0,1,.438.171.832.832,0,0,1,.146.5l.365,4.013c.008.089.016.227.016.281,0,.244-.146.389-.527.389s-.543-.154-.562-.445l-.227-3.1-1.305,2.724c-.122.251-.218.438-.535.438-.292,0-.405-.162-.535-.438l-1.289-2.732-.251,3.113c-.024.281-.154.445-.551.445-.356,0-.511-.129-.511-.4a2.887,2.887,0,0,1,.024-.292l.389-4.013a.741.741,0,0,1,.171-.511.617.617,0,0,1,.446-.146c.438,0,.576.235.762.608l1.377,2.788Z" transform="translate(-1477.564 -627.85)" fill="#f05523"/>
        </g>
      </g>
    </g>
  </g>
</svg>
