<svg xmlns="http://www.w3.org/2000/svg" width="160" height="160" viewBox="0 0 160 160">
  <g id="Mozzart_logo" transform="translate(-991 -1004)">
    <g id="Component_63_9" data-name="Component 63 – 9" transform="translate(991 1004)">
      <g id="Rectangle_6801" data-name="Rectangle 6801" fill="#afafaf" stroke="#707070" stroke-width="1" opacity="0">
        <rect width="160" height="160" stroke="none"/>
        <rect x="0.5" y="0.5" width="159" height="159" fill="none"/>
      </g>
    </g>
    <g id="Mozzart_logo-2" data-name="Mozzart_logo" transform="translate(992 1010.711)">
      <path id="Path_52825" data-name="Path 52825" d="M57.627,103.741c-.3.6-2.688,6.868-2.688,6.868s-2.538-6.121-2.837-6.868a2.245,2.245,0,0,0-2.09-1.493,2.4,2.4,0,0,0-2.24,1.941c-.149,1.045-1.792,12.691-1.792,13.139a1.977,1.977,0,0,0,1.941,1.941,2.067,2.067,0,0,0,1.941-1.642c.149-.9.9-7.167.9-7.167s2.24,5.674,2.389,5.972a1.941,1.941,0,0,0,3.583,0c.149-.448,2.389-5.972,2.389-5.972s.9,6.271.9,7.167a1.942,1.942,0,0,0,1.941,1.642,1.977,1.977,0,0,0,1.941-1.941c0-.448-1.643-12.094-1.792-13.139a2.385,2.385,0,0,0-2.24-1.941A2.806,2.806,0,0,0,57.627,103.741Z" transform="translate(-33.472 -37.44)" fill="rgb(253, 185, 19)"/>
      <path id="Path_52826" data-name="Path 52826" d="M36.25,71.309a1.977,1.977,0,0,0-1.941,1.941.9.9,0,0,0,.149.6,16.21,16.21,0,0,1,.6,3.733A13.587,13.587,0,1,1,21.469,63.993a10.309,10.309,0,0,1,3.733.6c.149,0,.3.149.6.149A1.976,1.976,0,0,0,27.74,62.8a2.1,2.1,0,0,0-1.493-1.941,16.776,16.776,0,0,0-4.778-.6A17.394,17.394,0,1,0,38.938,77.58a18.772,18.772,0,0,0-.747-4.927A2.126,2.126,0,0,0,36.25,71.309Z" transform="translate(0 -3.964)" fill="rgb(253, 185, 19)"/>
      <path id="Path_52827" data-name="Path 52827" d="M136.986,60.926a.454.454,0,0,1,0-.6l1.792-1.792a1.9,1.9,0,0,0-2.687-2.688L134.3,57.641a.454.454,0,0,1-.6,0l-1.792-1.792a1.9,1.9,0,0,0-2.688,2.688l1.792,1.792a.454.454,0,0,1,0,.6l-1.792,1.792a1.9,1.9,0,0,0,2.688,2.687l1.792-1.792a.454.454,0,0,1,.6,0L136.09,65.4a1.9,1.9,0,1,0,2.687-2.687Z" transform="translate(-99.392)" fill="rgb(253, 185, 19)"/>
      <path id="Path_52828" data-name="Path 52828" d="M222.023,108.469a1.565,1.565,0,0,0-1.792-1.344h-1.045a1.506,1.506,0,0,0-1.642,1.045l-2.986,7.316-2.986-7.316a1.615,1.615,0,0,0-1.642-1.045h-1.045a1.52,1.52,0,0,0-1.642,1.344l-1.792,13.736v.3A1.411,1.411,0,0,0,206.943,124h.747a1.624,1.624,0,0,0,1.642-1.344l1.045-7.913,2.389,6.122a1.784,1.784,0,0,0,1.642,1.045h.6a1.586,1.586,0,0,0,1.643-1.045l2.389-6.122,1.045,7.913A1.506,1.506,0,0,0,221.724,124h.747a1.411,1.411,0,0,0,1.493-1.493v-.3Z" transform="translate(-160.616 -41.328)" fill="rgb(253, 185, 19)"/>
      <path id="Path_52829" data-name="Path 52829" d="M311.191,105.652a8.021,8.021,0,0,0-6.42,2.687,9.208,9.208,0,0,0-2.09,6.122,9.495,9.495,0,0,0,2.09,6.122,9.012,9.012,0,0,0,12.84,0,10.008,10.008,0,0,0,0-12.243A8.021,8.021,0,0,0,311.191,105.652Zm0,14.035c-2.837,0-4.629-2.09-4.629-5.375,0-3.135,1.941-5.375,4.629-5.375,2.837,0,4.629,2.09,4.629,5.375C315.969,117.6,314.028,119.687,311.191,119.687Z" transform="translate(-238.137 -40.154)" fill="rgb(253, 185, 19)"/>
      <path id="Path_52830" data-name="Path 52830" d="M401.829,120.563h-6.271l7.465-10.6a1.1,1.1,0,0,0,.3-.9,1.624,1.624,0,0,0-.149-.747l-.3-.448a1.49,1.49,0,0,0-1.493-.747h-8.958a1.411,1.411,0,0,0-1.493,1.493v.448a1.411,1.411,0,0,0,1.493,1.493h5.524l-7.316,10.6a1.1,1.1,0,0,0-.3.9,1.622,1.622,0,0,0,.149.747l.149.3a1.49,1.49,0,0,0,1.493.747h9.7a1.411,1.411,0,0,0,1.493-1.493v-.448A1.379,1.379,0,0,0,401.829,120.563Z" transform="translate(-308.021 -41.328)" fill="rgb(253, 185, 19)"/>
      <path id="Path_52831" data-name="Path 52831" d="M471.812,120.563h-6.271l7.465-10.6a1.1,1.1,0,0,0,.3-.9,1.623,1.623,0,0,0-.149-.747l-.3-.448a1.49,1.49,0,0,0-1.493-.747h-8.958a1.411,1.411,0,0,0-1.493,1.493v.448a1.411,1.411,0,0,0,1.493,1.493h5.524l-7.316,10.6a1.1,1.1,0,0,0-.3.9,1.622,1.622,0,0,0,.149.747l.149.3a1.49,1.49,0,0,0,1.493.747h9.705a1.411,1.411,0,0,0,1.493-1.493v-.448A1.379,1.379,0,0,0,471.812,120.563Z" transform="translate(-363.819 -41.328)" fill="rgb(253, 185, 19)"/>
      <path id="Path_52832" data-name="Path 52832" d="M544.484,122.056l-5.375-13.885a1.615,1.615,0,0,0-1.643-1.045h-.746a1.586,1.586,0,0,0-1.642,1.045L529.7,122.056c0,.149-.149.3-.149.6A1.379,1.379,0,0,0,531.046,124h.746a1.339,1.339,0,0,0,1.493-1.045l1.045-2.538h5.375l1.045,2.687a1.437,1.437,0,0,0,1.493,1.045h.9a1.379,1.379,0,0,0,1.493-1.344A3.04,3.04,0,0,0,544.484,122.056Zm-8.809-5.226,1.344-3.434,1.344,3.434Z" transform="translate(-419.022 -41.328)" fill="rgb(253, 185, 19)"/>
      <path id="Path_52833" data-name="Path 52833" d="M621.447,117.726a.146.146,0,0,0-.149-.149,5.438,5.438,0,0,0,2.986-4.927c0-3.733-2.389-5.524-7.017-5.524h-3.583a1.566,1.566,0,0,0-1.642,1.643V122.5A1.411,1.411,0,0,0,613.534,124h.747a1.411,1.411,0,0,0,1.493-1.493v-4.181h1.493a5.677,5.677,0,0,1,.747.9l2.538,4.031a1.516,1.516,0,0,0,1.493.747h.9a1.379,1.379,0,0,0,1.493-1.344,2.123,2.123,0,0,0-.3-.9Zm-3.583-2.837h-1.941V110.41h1.344c3.135,0,3.135,1.493,3.135,2.09A2.294,2.294,0,0,1,617.864,114.889Z" transform="translate(-484.789 -41.328)" fill="rgb(253, 185, 19)"/>
      <path id="Path_52834" data-name="Path 52834" d="M687.8,107.125h-10.75a1.535,1.535,0,0,0-1.643,1.493v.448a1.635,1.635,0,0,0,1.643,1.493h3.434V122.5A1.411,1.411,0,0,0,681.973,124h.747a1.411,1.411,0,0,0,1.493-1.493V110.559h3.434a1.535,1.535,0,0,0,1.642-1.493v-.448C689.438,107.722,688.691,107.125,687.8,107.125Z" transform="translate(-535.308 -41.328)" fill="rgb(253, 185, 19)"/>
    </g>
  </g>
</svg>
