<svg xmlns="http://www.w3.org/2000/svg" xmlns:xlink="http://www.w3.org/1999/xlink" width="160" height="160" viewBox="0 0 160 160">
  <defs>
    <linearGradient id="linear-gradient" x1="0.5" y1="-95.713" x2="0.5" y2="-94.713" gradientUnits="objectBoundingBox">
      <stop offset="0" stop-color="#006b80"/>
      <stop offset="0.174" stop-color="#037187" stop-opacity="0.827"/>
      <stop offset="0.438" stop-color="#00829b" stop-opacity="0.561"/>
      <stop offset="0.758" stop-color="#009fbc" stop-opacity="0.243"/>
      <stop offset="1" stop-color="#00badb" stop-opacity="0"/>
    </linearGradient>
    <linearGradient id="linear-gradient-2" x1="0.5" y1="0.975" x2="0.5" y2="-0.024" gradientUnits="objectBoundingBox">
      <stop offset="0" stop-color="#006b80"/>
      <stop offset="0.286" stop-color="#006d82" stop-opacity="0.714"/>
      <stop offset="0.478" stop-color="#00758a" stop-opacity="0.522"/>
      <stop offset="0.643" stop-color="#038199" stop-opacity="0.357"/>
      <stop offset="0.792" stop-color="#0094af" stop-opacity="0.208"/>
      <stop offset="0.929" stop-color="#00aaca" stop-opacity="0.071"/>
      <stop offset="1" stop-color="#00badb" stop-opacity="0"/>
    </linearGradient>
  </defs>
  <g id="MrBit_logo" transform="translate(-1216 -1004)">
    <g id="Component_63_8" data-name="Component 63 – 8" transform="translate(1216 1004)">
      <g id="Rectangle_6801" data-name="Rectangle 6801" fill="#afafaf" stroke="#707070" stroke-width="1" opacity="0">
        <rect width="160" height="160" stroke="none"/>
        <rect x="0.5" y="0.5" width="159" height="159" fill="none"/>
      </g>
    </g>
    <g id="MrBit_logo-2" data-name="MrBit_logo" transform="translate(1171.6 1044.808)">
      <rect id="Rectangle_6759" data-name="Rectangle 6759" width="6.759" height="9.333" transform="translate(137.104 3.789)" fill="url(#linear-gradient)"/>
      <path id="Path_52835" data-name="Path 52835" d="M516.8,39v8.392h6.7V39.084Z" transform="translate(-369.589 -29.896)" fill="url(#linear-gradient-2)"/>
      <g id="Group_23848" data-name="Group 23848" transform="translate(66.434 17.206)">
        <path id="Path_52836" data-name="Path 52836" d="M166.354,107.49s-16.26-12.975-16.469-13.2c-.084-.084-.753-.481-1.549-.942l.523-.188s-.481,0-.314-.607c.146-.607.837-.1.837-.1,1.4.314,10.463-4.6,15.925-7.659l.042.042c.188-.042.4-.272.565-.356.167-.1.335-.167.481-.251l-.021-.021c1.842-1.046,3.076-1.758,3.076-1.758l-1.862-1.046c4.457-.481,3.934-1.172,3.934-1.172l.167-.356.293-.439.377-1.444-12.158.565a.159.159,0,0,1-.084.042,9.042,9.042,0,0,1-1.842.063c-.481-.042-.963.021-1.444,0l-7.241.251c.021-.732,0-1.674-.377-.9l-.46.921-17.955.1s11.8,1.025,11.7,1.025c1.025,1,1.339,1.172,2.344,2.218.712-.021,1.465-.042,2.218-.042l-5.42,10.8s-.021.188-.063.439c-.984.628-1.486,1-1.3,1.067l.544.984c-1.381,2.93-5.378,11.531-5.378,11.531a31.632,31.632,0,0,0,2.93-1.36,3.671,3.671,0,0,1,1.13-.523l5.211-9.124,1.151,1.235s.167.419.439.251c.209-.126,7.931,6.3,12.1,10l2.176,1.423L158.7,107.03l2.239,1.988,1.444-.188ZM149.132,92.109s.607-1.025,1.067-.565S149.132,92.109,149.132,92.109ZM162.4,82.567l-6.8,3.683c.188-.188,5.148-2.909,6.7-3.767A.368.368,0,0,0,162.4,82.567Zm-1.549-1.151-9.752.4C152.166,81.144,160.851,81.416,160.851,81.416Zm-13.309,8.161-.8.879,3.641-7.366C150.387,84.345,147.541,89.577,147.541,89.577Zm2.281-2.49s2.135-4,1.381-4.1c-.5-.063-.481-.5-.4-.858,3.662-.1,7.429-.209,10.547-.335.209.167.419.314.607.46-2.574,1.36-8.517,4.5-13.56,7.282Zm2.281,9.94s2.993,2.8,2.93,2.741c-.858-.649-3.788-3.013-3.788-3.013Zm-4.081,1.088,10,7.889.314.586Z" transform="translate(-130.8 -77.715)" fill="#fff"/>
      </g>
      <g id="Group_23850" data-name="Group 23850" transform="translate(49.4 19.588)">
        <g id="Group_23849" data-name="Group 23849">
          <path id="Path_52837" data-name="Path 52837" d="M64.237,102.765c-.042-.544.23-7.889.4-12.179-.942-.23-3.223-.9-4.164-1.13a.739.739,0,0,0-.084.544l-.356-.5c-.042,0-.063-.021-.1-.021a.2.2,0,0,1-.126-.314l-.042-.063L49.4,108.938c.816-.063,1.632-.146,2.448-.23.356-.042.712-.1,1.067-.167l8.559-14.314.251-2.051.084-.419A10.524,10.524,0,0,0,62,90.711l.439,14.774s.084,2.386.439,1.277a3.712,3.712,0,0,0,.481-.732v-1.653s.4-.146.439-1.569C63.8,101.991,64.258,103.1,64.237,102.765Zm-11.259,2.3,7.345-14.481-.042.607Zm7.7-14.188c.042.1.063.167.042.188C60.679,91.109,60.679,91,60.679,90.879Z" transform="translate(-49.4 -89.1)" fill="#fff"/>
          <path id="Path_52838" data-name="Path 52838" d="M114.43,123.544a3.392,3.392,0,0,0-.691,1.779c-.126.46-.272.942-.439,1.4l.188.439s10.087-9.584,10.066-9.731c0,0-.419,0-.209-.251.419-.5,1.046-1.256.879-1.423-.23-.272-1.423.1-1.925-.126-.481-.23.126-.523-1.674,1.193-.042.042-4.374,4.185-6.257,6.445A.158.158,0,0,1,114.43,123.544Zm8.705-6.152.042-.042s-1.946,2.051-1.716,1.549A10.961,10.961,0,0,1,123.136,117.391Z" transform="translate(-99.928 -109.941)" fill="#fff"/>
          <path id="Path_52839" data-name="Path 52839" d="M124.674,115.721c-1.235.021-3.076.084-4.311-.021L119,118.713l-8.2,21.115.837-.649Z" transform="translate(-97.951 -110.134)" fill="#fff"/>
        </g>
      </g>
      <g id="Group_23856" data-name="Group 23856" transform="translate(97.132 1.192)">
        <g id="Group_23853" data-name="Group 23853" transform="translate(3.306 4.353)">
          <g id="Group_23852" data-name="Group 23852">
            <g id="Group_23851" data-name="Group 23851">
              <path id="Path_52840" data-name="Path 52840" d="M483.332,154.081c.774.188,1.569.356,2.365.5l-16.386-28.837-.963-1.946c-.691.251-1.3.67-1.967.984a8.848,8.848,0,0,0-1.842.712c-.649.481-.816,1.8-1.13,2.532a3.9,3.9,0,0,1-.209.419c3.558,5.8,8.412,16.846,8.6,16.825.272-.042.021,8.14-.126,8.454-.984,2.114,5.5.9,7.3,2.741,1.4,1.444,3.62-3.6,3.871-3.348A4.222,4.222,0,0,1,483.332,154.081Zm-12.954-15.695c-.879-.042-4.478-7.764-4.478-7.764C466.13,130.245,471.236,138.428,470.378,138.386Zm.67,1.235c-.272-1.821,3.725,6.466,3.725,6.466S471.32,141.441,471.048,139.621Z" transform="translate(-427.644 -102.495)" fill="#520c83"/>
              <path id="Path_52841" data-name="Path 52841" d="M397.676,65.5c-.1,0-.188-.021-.293-.021-1.946.167-3.913.314-5.88.544l-.5.063c3.6.042,13.833-.251,14.984-.314a.643.643,0,0,1,.8-.209c.1.063.209.084.293.146,1.8-.146,3.6-.419,5.378-.712C411.173,65.1,401.275,65.67,397.676,65.5Z" transform="translate(-370.553 -56)" fill="#520c83"/>
              <path id="Path_52842" data-name="Path 52842" d="M355.717,28.795a9.658,9.658,0,0,0-2.783.251l.544-.042-7.68,1.653-.251-.984,6.424-.523a.419.419,0,0,1,.021-.565c1.36-1.3.23-2.616-.649-3.662h-.021c-.042.063-.1.126-.167.126a22.286,22.286,0,0,1-2.365-.021.157.157,0,0,1-.146-.1c-5.839-.188-16.113-.251-16.637-.419,0-.021.523-1.465.523-1.465.335-1.025.126-.921-.419-1.046-.272-.063-1.59,1.653-1.9,2.03-.356.021-10.735.063-19.859.1a6.744,6.744,0,0,0,2.428,2.365c.816.439,2.093.732,2.72,1.486.732.879,1.067,2.093,2.009,2.762.042.021.063.063.084.084l2.511-.251a21.681,21.681,0,0,1,5.085.146,73.262,73.262,0,0,1,9.333-.356l10.066-.481s-.419.565-1.674,2.239c-.209.272,8.643-2.448,8.35-2.051-1.611,2.051-23.27,11.363-30.846,15.025a11.5,11.5,0,0,1,.711-2.135c.377-.649.46-.293.46-.293s.188.712.984-.879c.356-.712,2.114-3.788,3.934-6.927a38.78,38.78,0,0,1-5.148-2.051L314.68,46.562s-1.276-.544-1.779,1.549a9.87,9.87,0,0,0-.293,2.72l-4.729,9.689a37.183,37.183,0,0,1-1.653,4.646c-.837,1.758-8.12,16.679-8.12,16.679s.377.481.188.8a.549.549,0,0,1-.544.272l-.46,1.214-.628.67-2.595,5.357-.209.858s-.753,2.3-.523,2.532,3.892-6.362,4-6.487.774.1.774.1l17.809-33.88a.473.473,0,0,1,.23-.439q.314-.691.628-1.444a2.092,2.092,0,0,1,.858-1.193c.732-.356,1.528-.481,2.239-.9a10.057,10.057,0,0,1,1.569-.8l-.021-.021c2.365-1.13,4.5-2.155,5.378-2.532a5.035,5.035,0,0,1,4.332.084l23.542-11.8a20.669,20.669,0,0,1,2.616-1.59A38.075,38.075,0,0,0,355.717,28.795ZM307.69,62.173s2.26-4.75,4.248-7.952C311.918,54.221,308.046,62.529,307.69,62.173Zm9.459-18.039-.084-.021h0l5.106-9.689-.356,1.57Zm13.268.67,17.369-9.166.649.314C348.456,35.952,331,45.1,330.417,44.8Z" transform="translate(-293.291 -21.992)" fill="#520c83"/>
              <path id="Path_52843" data-name="Path 52843" d="M367.285,246.476l-6.424.126c-1.214-.042-43.318,3.013-43.318,3.013l-8.643-1.946.628-2.595,1.318-.419,37.166.293-2.511-.5-35.366.628-.042-1.946s34.571-2.427,35.345-2.427,12.409,3.725,12.409,3.725,7.68.565,9.438.544c.188,0,.418.021.691.042C367.746,245.471,367.495,245.974,367.285,246.476Z" transform="translate(-305.634 -194.932)" fill="#520c83"/>
            </g>
            <path id="Path_52844" data-name="Path 52844" d="M556.934,273.728c-.063-.084-1.57-.607-2.281.272-.712.9-.377,2.009.1,2.155C555.259,276.3,558.189,275.528,556.934,273.728Z" transform="translate(-499.635 -220.866)" fill="#520c83"/>
            <path id="Path_52845" data-name="Path 52845" d="M509.848,274.148s-4.981-1.862-5.587-.8,6.466,3.39,6.676,3.013C511.124,275.969,509.848,274.148,509.848,274.148Z" transform="translate(-460.082 -220.49)" fill="#520c83"/>
          </g>
        </g>
        <g id="Group_23855" data-name="Group 23855" transform="translate(0 0)">
          <g id="Group_23854" data-name="Group 23854">
            <path id="Path_52846" data-name="Path 52846" d="M467.531,133.281c.774.188,1.57.356,2.365.5l-16.386-28.837L452.548,103c-.691.251-1.3.67-1.967.984a8.847,8.847,0,0,0-1.842.712c-.649.481-.816,1.8-1.13,2.532a3.9,3.9,0,0,1-.209.419c3.557,5.8,8.412,16.846,8.6,16.825.272-.042.021,8.14-.126,8.454-.984,2.114,5.5.9,7.3,2.741,1.4,1.444,3.62-3.6,3.871-3.348A3.411,3.411,0,0,1,467.531,133.281Zm-12.954-15.716c-.879-.042-4.478-7.764-4.478-7.764C450.351,109.445,455.436,117.607,454.578,117.565Zm.67,1.235c-.272-1.821,3.725,6.466,3.725,6.466S455.54,120.641,455.247,118.8Z" transform="translate(-411.844 -81.695)" fill="#00eae9"/>
            <path id="Path_52847" data-name="Path 52847" d="M381.976,44.6c-.1,0-.188-.021-.293-.021-1.946.167-3.913.314-5.88.544l-.5.063c3.6.042,13.832-.251,14.983-.314a.643.643,0,0,1,.8-.209c.1.063.209.084.293.146,1.8-.146,3.6-.419,5.378-.712C395.452,44.2,385.554,44.791,381.976,44.6Z" transform="translate(-354.832 -35.121)" fill="#00eae9"/>
            <path id="Path_52848" data-name="Path 52848" d="M339.938,7.995a9.658,9.658,0,0,0-2.783.251L337.7,8.2l-7.68,1.653-.251-.984,6.424-.523a.419.419,0,0,1,.021-.565c1.36-1.3.23-2.616-.649-3.662h-.021c-.042.063-.1.126-.167.126a22.287,22.287,0,0,1-2.365-.021.157.157,0,0,1-.146-.1c-5.839-.188-16.113-.251-16.637-.419,0-.021.523-1.465.523-1.465.335-1.025.126-.921-.419-1.046-.272-.063-1.59,1.653-1.9,2.03-.356.021-10.735.063-19.859.1A6.744,6.744,0,0,0,297,5.693c.816.439,2.093.732,2.72,1.486.732.879,1.067,2.093,2.009,2.762.042.021.063.063.084.084l2.511-.251a21.681,21.681,0,0,1,5.085.146,73.262,73.262,0,0,1,9.333-.356l10.066-.481s-.418.565-1.674,2.239c-.209.272,8.643-2.448,8.329-2.051-1.611,2.051-23.27,11.363-30.846,15.025a11.5,11.5,0,0,1,.711-2.135c.377-.649.46-.293.46-.293s.188.712.984-.879c.356-.712,2.114-3.788,3.934-6.927a38.782,38.782,0,0,1-5.148-2.051L298.88,25.762s-1.277-.544-1.779,1.549a9.87,9.87,0,0,0-.293,2.72l-4.729,9.731a37.188,37.188,0,0,1-1.653,4.646c-.837,1.758-8.12,16.679-8.12,16.679s.377.481.188.8a.549.549,0,0,1-.544.272l-.46,1.214-.628.67-2.595,5.315-.209.858s-.753,2.3-.523,2.532,3.892-6.362,4-6.487.774.1.774.1l17.809-33.88a.473.473,0,0,1,.23-.439q.314-.691.628-1.444a2.092,2.092,0,0,1,.858-1.193c.732-.356,1.528-.481,2.239-.9a10.058,10.058,0,0,1,1.569-.8l-.021-.021c2.365-1.13,4.5-2.155,5.378-2.532a5.035,5.035,0,0,1,4.332.084l23.542-11.8a20.672,20.672,0,0,1,2.616-1.59A36.066,36.066,0,0,0,339.938,7.995ZM291.89,41.352s2.26-4.75,4.248-7.952C296.139,33.4,292.246,41.729,291.89,41.352Zm9.459-18.039-.084-.021h0l5.106-9.689-.356,1.569Zm13.267.67,17.369-9.166.649.314C332.656,15.131,315.224,24.276,314.617,23.983Z" transform="translate(-277.491 -1.192)" fill="#00eae9"/>
            <path id="Path_52849" data-name="Path 52849" d="M351.485,225.576l-6.424.126c-1.214-.042-43.318,3.013-43.318,3.013l-8.643-1.946.628-2.595,1.318-.419,37.166.293-2.511-.5-35.366.628-.042-1.946s34.571-2.427,35.345-2.427,12.409,3.725,12.409,3.725,7.68.565,9.438.544c.188,0,.419.021.691.042C351.946,224.592,351.695,225.074,351.485,225.576Z" transform="translate(-289.834 -174.053)" fill="#00eae9"/>
          </g>
          <path id="Path_52850" data-name="Path 52850" d="M541.134,252.828c-.063-.084-1.57-.607-2.281.272-.712.9-.377,2.009.1,2.155C539.459,255.423,542.41,254.649,541.134,252.828Z" transform="translate(-483.835 -199.987)" fill="#00eae9"/>
          <path id="Path_52851" data-name="Path 52851" d="M494.048,253.248s-4.98-1.862-5.587-.8,6.466,3.39,6.676,3.013C495.345,255.069,494.048,253.248,494.048,253.248Z" transform="translate(-444.282 -199.611)" fill="#00eae9"/>
        </g>
      </g>
      <g id="Group_23857" data-name="Group 23857" transform="translate(156.691 24.025)">
        <path id="Path_52852" data-name="Path 52852" d="M573.024,111.137l-2.616.732.816,1.821-2.93,6.048c-1.674,3.013-4.143,7.952-6.194,12.158a12.35,12.35,0,0,1,3.1-.544l2.992-5.943.439-.356-3.265,6.3h.4c1.988-3.767,3.809-7.22,5.064-9.584l.167.126c.314-.649.607-1.3.858-1.967l-.021-.021c.042-.084.084-.146.126-.23.021-.042.021-.084.042-.126a.457.457,0,0,1,.063-.1c.335-.649.523-1,.523-1l4.248-8.14Zm-1.779,5.985c-.293.126.188-.837.293-.879C571.643,116.18,571.245,117.122,571.245,117.122Zm1.235-2.762c-.146-.4,1.444-2.386,1.444-2.386S572.626,114.757,572.48,114.36Z" transform="translate(-562.1 -110.3)" fill="#fff"/>
      </g>
      <g id="Group_23859" data-name="Group 23859" transform="translate(165.39 2.491)">
        <g id="Group_23858" data-name="Group 23858" transform="translate(0 0)">
          <path id="Path_52853" data-name="Path 52853" d="M663.4,168.188a1.52,1.52,0,0,1,.23-.188c.691,1.172,4.667.586,5.4,1.737l-4.416,2.574-.272.858,4.771-3.348c.146.23,1.716.084,1.883.314-3.306,2.365-10.212,6.927-10.212,6.927l-3.578,1.507-5-5.525,3.306.858C655.527,173.922,663.207,168.335,663.4,168.188Z" transform="translate(-642.044 -134.392)" fill="#fff"/>
          <path id="Path_52854" data-name="Path 52854" d="M637.136,19.265c-.042-.063-9.1.774-9.145.691l-.649.46a1.946,1.946,0,0,0-.272-.084C628.619,17.382,634,7.9,634,7.9c-.293-.251-.4-.251-.691-.5-.774.858-5.064,3.683-5.922,4.813-1.046,1.4-2.574,4.374-4.939,8.413a4.729,4.729,0,0,0-.544.021h-.084s-7.073.607-8.266.8c.586.272-.419.921-1.9,1.9-.188.126-7.764,1.758-7.952,1.862-.649.419,10.3-.419,10.484-.419.126,0,2.03-.209,5.964-.4,0,0,2.867-.293,2.741-.063-.042.063-3.055.712-3.1.8-.523.921-1.632,2.762-3.118,5.483-.419.732-.816,1.465-1.214,2.155,0,.021,0,.021.021.042-1.841,3.348-4.248,7.324-5.211,8.831.188.774,7.659,10.714,7.68,10.777.691.063-3.976-9.312-3.913-9.312a.5.5,0,0,1,.377.126s4.98-8.308,8.517-14.481c.042-.063.126-.23.272-.46,1.067-1.862,1.7-2.93,2.281-4.039.691-.042,8.14-.691,11.112-.879C636.215,23.011,638.747,19.328,637.136,19.265Zm-23,23.584-.23-.419,3.557-5.608a.849.849,0,0,1,.1.188Zm7.68-21.764-4.081.272a39.006,39.006,0,0,1,4.164-.377Zm5.043-.356h0Z" transform="translate(-603.668 -7.4)" fill="#fff"/>
        </g>
      </g>
    </g>
  </g>
</svg>
