<svg xmlns="http://www.w3.org/2000/svg" width="160" height="160" viewBox="0 0 160 160">
  <g id="slotV_logo" transform="translate(-542 -1315)">
    <g id="Component_63_2" data-name="Component 63 – 2" transform="translate(542 1315)">
      <g id="Rectangle_6801" data-name="Rectangle 6801" fill="#afafaf" stroke="#707070" stroke-width="1" opacity="0">
        <rect width="160" height="160" stroke="none"/>
        <rect x="0.5" y="0.5" width="159" height="159" fill="none"/>
      </g>
    </g>
    <g id="slotV_logo-2" data-name="slotV_logo" transform="translate(547 1370)">
      <g id="Artboard" transform="translate(0 0)">
        <g id="Group-26" transform="translate(0 0)">
          <g id="Logo-_-full_unreg-Copy" data-name="Logo-/-full_unreg-Copy" transform="translate(0 0)">
            <g id="Logo_white" transform="translate(0)">
              <path id="SLOT" d="M118.678,19.283q-1.552-.473-2.822-.961a8.9,8.9,0,0,1-2.187-1.181,5.012,5.012,0,0,1-1.428-1.654,4.938,4.938,0,0,1-.512-2.347,4.976,4.976,0,0,1,2.31-4.284,11.221,11.221,0,0,1,6.472-1.606,19.727,19.727,0,0,1,2.822.189,9.182,9.182,0,0,1,2.24.583,3.875,3.875,0,0,1,1.464,1.008,2.129,2.129,0,0,1,.529,1.433,2.32,2.32,0,0,1-.423,1.4,4.142,4.142,0,0,1-1.023.992,8.515,8.515,0,0,0-2.081-.772,11.616,11.616,0,0,0-2.857-.331,5.193,5.193,0,0,0-2.328.394,1.148,1.148,0,0,0-.741.992.894.894,0,0,0,.459.772,5.047,5.047,0,0,0,1.376.551l1.869.535a14.111,14.111,0,0,1,5.1,2.41,4.885,4.885,0,0,1,1.781,3.985,5.064,5.064,0,0,1-2.363,4.331q-2.363,1.654-6.948,1.654a18.06,18.06,0,0,1-3.016-.236,10.377,10.377,0,0,1-2.434-.693,4.456,4.456,0,0,1-1.622-1.134,2.322,2.322,0,0,1-.582-1.559,2.21,2.21,0,0,1,.6-1.559,4.479,4.479,0,0,1,1.305-.992,9.963,9.963,0,0,0,2.416,1.2,9.32,9.32,0,0,0,3.121.5,4.593,4.593,0,0,0,2.433-.473,1.337,1.337,0,0,0,.706-1.1,1.052,1.052,0,0,0-.564-.961,7.74,7.74,0,0,0-1.587-.646Zm16.648,7.686a3.471,3.471,0,0,1-2.4-.787,2.727,2.727,0,0,1-.882-2.142V7.754q.388-.063,1.235-.173a12.573,12.573,0,0,1,1.622-.11,8.2,8.2,0,0,1,1.428.11,2.7,2.7,0,0,1,1.041.394,1.726,1.726,0,0,1,.635.787,3.468,3.468,0,0,1,.212,1.323V22.527h8.077a3.928,3.928,0,0,1,.459.929,3.53,3.53,0,0,1,.212,1.213,2.256,2.256,0,0,1-.6,1.78,2.338,2.338,0,0,1-1.587.52Zm12.7-9.67a10.35,10.35,0,0,1,.864-4.347,9.015,9.015,0,0,1,2.363-3.166,10.3,10.3,0,0,1,3.527-1.937,14.906,14.906,0,0,1,8.782,0A10.5,10.5,0,0,1,167.1,9.786a8.915,8.915,0,0,1,2.381,3.166,10.35,10.35,0,0,1,.864,4.347,10.645,10.645,0,0,1-.846,4.363,8.8,8.8,0,0,1-2.345,3.181,10.282,10.282,0,0,1-3.545,1.937,14.37,14.37,0,0,1-4.444.662,14.064,14.064,0,0,1-4.444-.677A10.149,10.149,0,0,1,151.2,24.8a9.083,9.083,0,0,1-2.328-3.181A10.46,10.46,0,0,1,148.023,17.3Zm6.349,0a6.142,6.142,0,0,0,1.3,4.284,5.054,5.054,0,0,0,7.019,0A6.14,6.14,0,0,0,164,17.3a6.144,6.144,0,0,0-1.288-4.252,4.5,4.5,0,0,0-3.509-1.417,4.6,4.6,0,0,0-3.509,1.4A6.025,6.025,0,0,0,154.372,17.3Zm17.883-5.1a3.873,3.873,0,0,1-.459-.945,3.756,3.756,0,0,1-.212-1.26,2.225,2.225,0,0,1,.617-1.764,2.361,2.361,0,0,1,1.6-.535h15.378a3.875,3.875,0,0,1,.458.945,3.746,3.746,0,0,1,.212,1.26,2.225,2.225,0,0,1-.617,1.764,2.361,2.361,0,0,1-1.6.535h-3.915V26.748a10.85,10.85,0,0,1-1.217.189,14.463,14.463,0,0,1-1.64.095,8.2,8.2,0,0,1-1.428-.11,2.7,2.7,0,0,1-1.04-.394,1.723,1.723,0,0,1-.635-.787,3.459,3.459,0,0,1-.212-1.323V12.2Z" transform="translate(-63.292 -4.072)" fill="#fff"/>
              <path id="CASINO" d="M116.3,69.989a2.114,2.114,0,0,0-1.59.569,2.22,2.22,0,0,0-.552,1.611,2.106,2.106,0,0,0,.613,1.623,2.329,2.329,0,0,0,1.65.569,2.877,2.877,0,0,0,.936-.133,6.781,6.781,0,0,0,.734-.3,1.231,1.231,0,0,1,.357.406,1.139,1.139,0,0,1,.128.551.99.99,0,0,1-.613.842,3.921,3.921,0,0,1-1.866.345,6.078,6.078,0,0,1-1.7-.23,3.918,3.918,0,0,1-1.388-.709,3.366,3.366,0,0,1-.936-1.212,4.09,4.09,0,0,1-.344-1.751,3.96,3.96,0,0,1,.33-1.666,3.533,3.533,0,0,1,.9-1.218,3.882,3.882,0,0,1,1.34-.751,5.193,5.193,0,0,1,1.643-.254,4.138,4.138,0,0,1,1.92.363,1.069,1.069,0,0,1,.68.933.875.875,0,0,1-.175.545,1.379,1.379,0,0,1-.4.363,4.575,4.575,0,0,0-.748-.351A2.681,2.681,0,0,0,116.3,69.989Zm15.724-1.26a3.058,3.058,0,0,1,.694-.23,4.088,4.088,0,0,1,.936-.109,3.714,3.714,0,0,1,1.193.176,1,1,0,0,1,.667.551q.243.63.525,1.466t.566,1.726q.283.89.552,1.757t.472,1.533a1.136,1.136,0,0,1-.485.273,2.542,2.542,0,0,1-.768.1,2.613,2.613,0,0,1-.546-.048,1.028,1.028,0,0,1-.364-.145.736.736,0,0,1-.229-.254,2.079,2.079,0,0,1-.155-.363l-.242-.836H132.4q-.108.363-.215.751t-.215.751a3.734,3.734,0,0,1-.4.1,2.582,2.582,0,0,1-.505.042,1.921,1.921,0,0,1-1.017-.212.664.664,0,0,1-.33-.588,1.113,1.113,0,0,1,.054-.339q.054-.17.121-.4.094-.327.263-.812t.371-1.048q.2-.563.431-1.157t.431-1.121q.2-.527.371-.939T132.02,68.73Zm1.617,1.563q-.189.509-.424,1.133t-.424,1.266h1.671q-.189-.654-.384-1.278t-.357-1.121Zm17.718,2.641q-.592-.182-1.078-.369a3.4,3.4,0,0,1-.835-.454,1.974,1.974,0,0,1,.141-3.186,4.263,4.263,0,0,1,2.472-.618,7.489,7.489,0,0,1,1.078.073,3.491,3.491,0,0,1,.855.224,1.482,1.482,0,0,1,.559.388.824.824,0,0,1,.2.551.9.9,0,0,1-.162.539,1.59,1.59,0,0,1-.391.382,3.24,3.24,0,0,0-.8-.3,4.406,4.406,0,0,0-1.091-.127,1.972,1.972,0,0,0-.889.151.442.442,0,0,0-.283.382.344.344,0,0,0,.175.3,1.93,1.93,0,0,0,.525.212l.714.206a5.373,5.373,0,0,1,1.947.927,1.885,1.885,0,0,1,.68,1.533,1.951,1.951,0,0,1-.9,1.666,4.6,4.6,0,0,1-2.654.636,6.852,6.852,0,0,1-1.152-.091,3.942,3.942,0,0,1-.929-.267,1.7,1.7,0,0,1-.62-.436.9.9,0,0,1-.222-.6.852.852,0,0,1,.229-.6,1.708,1.708,0,0,1,.5-.382,3.8,3.8,0,0,0,.923.46,3.539,3.539,0,0,0,1.193.194,1.745,1.745,0,0,0,.929-.182.514.514,0,0,0,.269-.424.4.4,0,0,0-.215-.369,2.936,2.936,0,0,0-.606-.248ZM169.073,75.8a4.137,4.137,0,0,1-.465.073,5.493,5.493,0,0,1-.626.036,3.111,3.111,0,0,1-.546-.042,1.028,1.028,0,0,1-.4-.151.663.663,0,0,1-.242-.3,1.334,1.334,0,0,1-.081-.509v-6.4q.148-.024.472-.067a4.771,4.771,0,0,1,.62-.042,3.109,3.109,0,0,1,.545.042,1.028,1.028,0,0,1,.4.151.661.661,0,0,1,.242.3,1.334,1.334,0,0,1,.081.509Zm19.4-.206a1.282,1.282,0,0,1-.546.261,3.509,3.509,0,0,1-.855.091,3.27,3.27,0,0,1-.943-.133,1.256,1.256,0,0,1-.727-.642l-1.334-2.447q-.2-.376-.364-.709t-.35-.769l-.081.012q.054.654.061,1.333t.007,1.333V75.8a4.128,4.128,0,0,1-.451.073,5.031,5.031,0,0,1-.6.036,3.389,3.389,0,0,1-.525-.036.853.853,0,0,1-.377-.145.7.7,0,0,1-.229-.3,1.257,1.257,0,0,1-.081-.491V68.887a1.134,1.134,0,0,1,.58-.363,2.806,2.806,0,0,1,.835-.121,3.2,3.2,0,0,1,.949.139,1.235,1.235,0,0,1,.721.636l1.347,2.447q.2.376.364.709t.35.769l.067-.012q-.054-.654-.067-1.308t-.013-1.308V68.511a4.129,4.129,0,0,1,.451-.073,5.03,5.03,0,0,1,.6-.036,1.763,1.763,0,0,1,.9.188.845.845,0,0,1,.31.781Zm11.6-3.428a4.009,4.009,0,0,1,.33-1.672,3.469,3.469,0,0,1,.9-1.218,3.931,3.931,0,0,1,1.347-.745,5.657,5.657,0,0,1,3.355,0,3.994,3.994,0,0,1,1.354.745,3.424,3.424,0,0,1,.91,1.218,4,4,0,0,1,.33,1.672,4.122,4.122,0,0,1-.323,1.678,3.384,3.384,0,0,1-.9,1.224,3.919,3.919,0,0,1-1.354.745,5.456,5.456,0,0,1-1.7.254,5.335,5.335,0,0,1-1.7-.26,3.869,3.869,0,0,1-1.347-.757,3.49,3.49,0,0,1-.889-1.224A4.047,4.047,0,0,1,200.076,72.17Zm2.425,0a2.372,2.372,0,0,0,.5,1.648,1.719,1.719,0,0,0,1.334.545,1.736,1.736,0,0,0,1.347-.545,2.968,2.968,0,0,0,.007-3.283,1.714,1.714,0,0,0-1.34-.545,1.751,1.751,0,0,0-1.34.539A2.328,2.328,0,0,0,202.5,72.17Z" transform="translate(-63.292 -38.68)" fill="#fff"/>
              <path id="V" d="M310.678,26.46a4.77,4.77,0,0,1-1.6.687,9.062,9.062,0,0,1-2.375.294,7.655,7.655,0,0,1-2.652-.409,2.717,2.717,0,0,1-1.51-1.129q-.405-.753-.994-1.947t-1.234-2.667q-.644-1.472-1.326-3.125t-1.307-3.354q-.626-1.7-1.179-3.337T295.542,8.4a4.912,4.912,0,0,1,1.491-.834,5.734,5.734,0,0,1,2.081-.376,4.364,4.364,0,0,1,2.228.507,3.052,3.052,0,0,1,1.27,1.881q.994,3.207,2.007,6.135t2.117,6.1h.221q.994-3.076,2.044-6.708t2.007-7.231a9.185,9.185,0,0,1,1.418-.491,6.818,6.818,0,0,1,1.712-.2,4.655,4.655,0,0,1,2.32.54,1.886,1.886,0,0,1,.958,1.783,8.457,8.457,0,0,1-.387,2.094q-.387,1.374-.994,3.092t-1.363,3.583q-.754,1.865-1.51,3.517t-1.418,2.912A11.234,11.234,0,0,1,310.678,26.46Z" transform="translate(-167.417 -4.072)" fill="#e82f3f"/>
              <g id="LogoSlotV">
                <path id="Shape" d="M15.651,46.756c-.482.253-.633-.164-.541-.4.712-1.458,1.4-2.925,2.145-4.366s1.561-2.908,2.341-4.359c.023-.417-.246-.368-.39-.282-.476.407-.961.8-1.42,1.228q-5.247,4.839-10.474,9.684A9.986,9.986,0,0,1,5.8,49.487a1.67,1.67,0,0,1-1.968.085,1.734,1.734,0,0,1-.4-1.4C3.99,44.346,4.616,40.525,5.223,36.7c.361-2.272,1.879-7.6.757-6.894q-1.351,2.455-2.705,4.924c-.5.909-.935,1.858-1.5,2.725A11.564,11.564,0,0,1,.612,38.963c-.292.3-.685.19-.6-.548.259-1.687.5-3.381.78-5.065C1.858,27,2.8,20.626,4.072,14.31A17.764,17.764,0,0,1,22.268.017,17.284,17.284,0,0,1,38.907,15.446a17.281,17.281,0,0,1-5.342,15.2ZM21.16,26.108a8.517,8.517,0,0,0,8.775-8.282,9,9,0,0,0-8.7-9.05A8.558,8.558,0,0,0,12.2,17.136,9.053,9.053,0,0,0,21.16,26.108Zm.226,5.705a14.473,14.473,0,0,0,7.29-2.137c1.033-.637,1.764-1.471,1.085-2.682-.725-1.313-1.8-1.064-2.951-.42-5.07,2.84-10.2,1.97-13.973-2.406-.84-.985-1.738-1.641-2.9-.657s-.656,2.022.151,3a14.5,14.5,0,0,0,11.3,5.308ZM10.542,17.9a10.113,10.113,0,0,1,2.8-7.612c.879-.952,1.335-1.97.18-2.954-1.076-.926-2.013-.371-2.83.525a14.124,14.124,0,0,0-3.778,10.8c.079,1.234.3,2.488,1.951,2.508,1.269,0,1.774-.844,1.7-2.764C10.558,18.21,10.551,18.046,10.542,17.9Zm24.818-.089A13.044,13.044,0,0,0,34.047,11.6a1.689,1.689,0,0,0-2.384-1.067,1.647,1.647,0,0,0-.889,2.436,10.928,10.928,0,0,1-.115,9.487c-.5,1.057-.439,2.078.771,2.626s2-.276,2.453-1.172c.833-1.651,1.213-2.114,1.476-6.109ZM17.877,3.608c-1.21.249-2.44,1.07-2.138,2.429.328,1.412,1.44,1.487,2.591,1.228a10.784,10.784,0,0,1,8.884,1.543c1.023.7,2.092.9,2.84-.276s.157-2.048-.879-2.744C26.708,4.13,22.2,2.473,17.877,3.608Z" transform="translate(0 0)" fill="#e82f3f"/>
              </g>
            </g>
          </g>
        </g>
      </g>
    </g>
  </g>
</svg>
